<svg width="35" height="14" viewBox="0 0 35 14" fill="none" xmlns="http://www.w3.org/2000/svg">
<g clip-path="url(#clip0_3411_82816)">
<path d="M8.57051 0.5C7.24272 0.5 5.96934 1.02436 5.03046 1.95772L1.96634 5.00381C1.02746 5.93716 0.5 7.20306 0.5 8.52304C0.5 11.2718 2.74145 13.5 5.50641 13.5C6.8342 13.5 8.10759 12.9756 9.04647 12.0423L11.1659 9.93527C11.1659 9.93523 11.166 9.93531 11.1659 9.93527L17.3413 3.79619C17.7897 3.35043 18.3979 3.1 19.032 3.1C20.0937 3.1 20.9938 3.78788 21.3059 4.73976L23.2548 2.80228C22.3657 1.41795 20.8067 0.5 19.032 0.5C17.7043 0.5 16.4309 1.02436 15.492 1.95772L7.19713 10.2038C6.74872 10.6496 6.14056 10.9 5.50641 10.9C4.18588 10.9 3.11538 9.83582 3.11538 8.52304C3.11538 7.89262 3.36729 7.28804 3.8157 6.84227L6.87979 3.79619C7.3282 3.35043 7.93637 3.1 8.57051 3.1C9.63223 3.1 10.5323 3.78791 10.8443 4.73982L12.7933 2.80233C11.9042 1.41797 10.3452 0.5 8.57051 0.5Z" fill="white"/>
<path d="M17.6589 10.2038C17.2105 10.6496 16.6023 10.9 15.9682 10.9C14.9066 10.9 14.0066 10.2123 13.6945 9.26057L11.7456 11.198C12.6347 12.5822 14.1936 13.5 15.9682 13.5C17.296 13.5 18.5694 12.9756 19.5082 12.0423L27.8031 3.79619C28.2515 3.35043 28.8597 3.1 29.4938 3.1C30.8144 3.1 31.8849 4.1642 31.8849 5.47696C31.8849 6.10738 31.6329 6.71196 31.1845 7.15773L28.1204 10.2038C27.672 10.6496 27.0639 10.9 26.4297 10.9C25.3681 10.9 24.4681 10.2122 24.156 9.26035L22.2071 11.1978C23.0962 12.5821 24.6551 13.5 26.4297 13.5C27.7575 13.5 29.0309 12.9756 29.9698 12.0423L33.0339 8.99619C33.9728 8.06284 34.5002 6.79694 34.5002 5.47696C34.5002 2.72826 32.2588 0.5 29.4938 0.5C28.166 0.5 26.8926 1.02436 25.9538 1.95772L17.6589 10.2038Z" fill="white"/>
</g>
<defs>
<clipPath id="clip0_3411_82816">
<rect width="34" height="13" fill="white" transform="translate(0.5 0.5)"/>
</clipPath>
</defs>
</svg>
